<svg id="Layer_1" data-name="Layer 1" xmlns="http://www.w3.org/2000/svg" viewBox="0 0 200 66"><defs><style>.cls-1{fill:#fff}</style></defs><path class="cls-1" d="M0 15.87l.09-4.79h18.62l.12 4.79h-.94v-.09c-.31-1.79-.75-2.7-1.32-3.16a3.6 3.6 0 0 0-2.33-.5h-3.36v12.94a9.9 9.9 0 0 0 .29 3.48c.27.56.81.72 2 .72h1.05v1H4.53v-1h1.08c1.2 0 1.74-.15 2-.68a8.68 8.68 0 0 0 .3-3.27V12.12h-3.7a2.49 2.49 0 0 0-2.21.82 8 8 0 0 0-1 2.85v.08zm27.43 14.41v-1h.11c1 0 1.44 0 1.64-.38a6.87 6.87 0 0 0 .23-2.74v-3.44c0-1 0-2.5-1.05-3.06a2.56 2.56 0 0 0-2.08-.12 4.46 4.46 0 0 0-1.44.95c-.23.21-.44.43-.65.66s-.56.53-.56.69v4.3a7.25 7.25 0 0 0 .21 2.71c.19.36.57.41 1.49.41h.1v1h-6v-1h.11c1 0 1.46 0 1.66-.37a6.8 6.8 0 0 0 .24-2.75V15a4.83 4.83 0 0 0-.22-2c-.21-.37-.63-.53-1.57-.53h-.1v-1h.1a12.19 12.19 0 0 0 3.66-.6h.35v9.56a5.57 5.57 0 0 1 4.05-2.21 3.92 3.92 0 0 1 2.95 1 4.2 4.2 0 0 1 1 3v3.94a6.9 6.9 0 0 0 .23 2.74c.19.35.63.38 1.61.38h.11v1zm8.93-1.05a6.09 6.09 0 0 1-2-4.7A6.83 6.83 0 0 1 36 20a5.36 5.36 0 0 1 4.09-1.84A4.81 4.81 0 0 1 45 22.73v.1h-8v1.25a9.15 9.15 0 0 0 .48 3.32 3.14 3.14 0 0 0 3.17 2.2A3.72 3.72 0 0 0 44 27.54v-.05h1v.13a4.77 4.77 0 0 1-4.78 3.12 5.88 5.88 0 0 1-3.86-1.51m6-7.38a1.59 1.59 0 0 0 0-.37A2.24 2.24 0 0 0 40 19.16a3 3 0 0 0-2.92 2.69zm6.93 8.27V29h1.11c3.72 0 3.72-1 3.72-6.64V8.22C54.12 1.8 53.68 2 49.3 2V.82C52.44.69 57.39.51 59.91.51c1.69 0 12-.35 12 7 0 5.62-6.22 6.59-8.16 6.86 4.91.26 9.75 2.17 9.75 7.7 0 6.46-5.66 8.05-10.8 8.05zm9.08-16.28c5.62.13 9-.62 9-6.11 0-5.31-3.1-6.43-9-5.9zm0 7.52c0 6.73 0 7.57 3.54 7.57 6.5 0 6.86-4.47 6.86-6.91 0-4.73-2-7.39-10.4-6.95zm23.47 2.7c0 4.51 0 4.91 2.61 4.91h.62v1.15h-9.38V29c3 0 3 0 3-4.91v-5c0-4.91 0-4.88-3-4.88V13a34.11 34.11 0 0 0 5-1.2l.31-.09a13.8 13.8 0 0 1 .62 4.52c1.37-3.27 4-4.52 5.66-4.52a3 3 0 0 1 3.1 2.7 1.49 1.49 0 0 1-1.46 1.51 1.68 1.68 0 0 1-1.55-1.33c-.22-.49-.53-1.15-1.24-1.15-1.24 0-4.29 2.12-4.29 6.64zm15.63 0c0 3.85-.31 4.91 2.44 4.91h.66v1.15H91V29h.75c2 0 2.61-.09 2.61-3.18v-6.9c0-4.87 0-4.87-3.14-4.87v-1.19A30.75 30.75 0 0 0 97 11.71h.44zM95.48.38a2.26 2.26 0 0 1 2.21 2.3A2.26 2.26 0 0 1 95.48 5a2.31 2.31 0 0 1-2.26-2.3A2.28 2.28 0 0 1 95.48.38m12.18 13.67v9.81c0 2.73 0 5.22 2.65 5.22a3 3 0 0 0 2.47-1.77l.9.64a5.08 5.08 0 0 1-4.6 2.88 4.38 4.38 0 0 1-3.86-2.17c-.57-1.06-.66-2-.66-5.22v-9.39H102v-1.19c2-.09 4.12-1.61 4.78-6h.89v6h5.21v1.2zM121 23.88c0 3.85-.31 5.09 2.44 5.09h.66v1.15h-9.56V29h.75c2 0 2.61-.44 2.61-3.54v-6.54c0-4.87-.26-4.87-3.36-4.87v-1.19a32.68 32.68 0 0 0 6-1.15h.46zm-2-23.5a2.26 2.26 0 0 1 2.21 2.3A2.26 2.26 0 0 1 119 5a2.31 2.31 0 0 1-2.26-2.3A2.28 2.28 0 0 1 119 .38m7.68 24.48h.93c.44 2.12 2 4.82 5.13 4.82a3 3 0 0 0 3.28-3c0-2.3-2-3.23-4.3-4.38-2.12-1.06-5-2.48-5-5.71 0-2.12 1-4.91 4.74-4.91a4.84 4.84 0 0 1 3.85 1.86 8.67 8.67 0 0 0 .84-1.55h.79v5.49h-.88c-.36-1.68-1.68-4.61-4.52-4.61a2.56 2.56 0 0 0-2.87 2.49c0 2 2.12 3 4.16 3.93 2.35 1.07 5.31 2.44 5.31 6.29 0 3.3-2.21 5.22-5.35 5.22a5.66 5.66 0 0 1-4.41-1.8 4.54 4.54 0 0 0-.86 1.7h-.84zm-15.35 34.78h.93c.44 2.13 2 4.83 5.13 4.83a3 3 0 0 0 3.28-3c0-2.3-2-3.23-4.3-4.38-2.12-1.06-4.91-2.48-5-5.71-.06-2.24 1.08-4.91 4.74-4.91a4.84 4.84 0 0 1 3.89 1.89 8.67 8.67 0 0 0 .84-1.55h.8v5.49h-.89c-.36-1.69-1.68-4.62-4.52-4.62a2.57 2.57 0 0 0-2.87 2.49c0 2 2.12 3 4.16 3.94 2.34 1.06 5.31 2.43 5.31 6.28a5.08 5.08 0 0 1-5.36 5.23 5.58 5.58 0 0 1-4.36-2 4.71 4.71 0 0 0-.9 1.77h-.84zm46.87-35.76c0 4.87 0 5.09 3 5.09v1.15h-9.16V29c3 0 3-.22 3-5.09v-5.35c0-4.11-1.28-5.43-3.85-5.31-2 .1-4 2.08-5.4 3.9v6.73c0 4.74 0 5.09 2.79 5.09v1.15h-9V29c3.1 0 3.1-.18 3.1-5.09V6.61c0-3.09 0-4.11-2.92-4.11V1.31a19.07 19.07 0 0 0 5.71-.93h.31v15c2.12-2.5 4.12-3.64 6.42-3.64 3.94 0 5.93 2.08 5.93 6.11zM79.65 35.61h9v1.15h-1.1c-3.85 0-3.94.36-3.94 6.33v14c0 5.66 0 6.64 3.72 6.64h1.32v1.15h-14v-1.12h1c3.72 0 3.72-1 3.72-6.64V39L67.78 64.91h-1L55.17 38.55V58c0 4 1.33 5.49 4.61 5.8v1.15H49.33v-1.19c2.7-.27 4.6-1.11 4.6-6.07V42.91c0-5.93 0-6.15-3.8-6.15h-.8v-1.15h8.9l10.64 24z"/><path class="cls-1" d="M106.09 58.6c0 4.74 0 5.14 2.7 5.14v1.17a12.46 12.46 0 0 0-4.74.71h-.31a8.83 8.83 0 0 1-.75-4.06 7.93 7.93 0 0 1-6.78 4.06c-5.14 0-5.49-4.07-5.49-5.93v-6.24c0-4.83 0-5.09-2.92-5.09v-1.15h6v12.24c0 1.68 0 4.46 3.41 4.46a6 6 0 0 0 5.79-6.32v-4.14c0-4.92 0-5.09-3.1-5.09v-1.15h6.2zm23.65-5.18c-.05.62-.09 1.13-.09 1.88 0 2.26.09 9.17 5.79 9.17a5.87 5.87 0 0 0 5.63-3.54h1c-.13.62-1.85 4.69-7.21 4.69-3.89 0-8.81-3-8.81-9.43 0-5.49 3.63-9.69 8.63-9.69a7.23 7.23 0 0 1 7.39 6.92zm8.54-1.08a5 5 0 0 0 .09-.89 3.69 3.69 0 0 0-3.85-4c-3.94 0-4.52 3.72-4.69 4.87zm23.4 6.28c0 4.74 0 5.14 2.7 5.14v1.15a12.46 12.46 0 0 0-4.74.71h-.31a9.6 9.6 0 0 1-.75-4.25 8.07 8.07 0 0 1-6.77 4.25c-5.14 0-5.49-4.08-5.49-5.93v-6.22c0-4.83 0-5.09-2.92-5.09v-1.17l6 .19v12.07c0 1.66 0 4.45 3.41 4.45a6.05 6.05 0 0 0 5.75-6.33v-4.12c0-4.92 0-5.09-3.1-5.09v-1.17h6.2zM178 48.2c-3 0-4.82 2.48-5.7 3.8v6.67c0 4.78 0 5.09 2.92 5.09v1.15h-8.94v-1.15c2.92 0 2.92-.27 2.92-5.09v-4.91c0-4.83 0-5.09-2.92-5.09v-1.15a37.3 37.3 0 0 0 4.87-1h.57a16.34 16.34 0 0 1 .58 3.67c1.85-2.21 4.16-3.67 6.85-3.67 4 0 5.14 2.43 5.36 3.85 2.12-2.48 4.34-3.85 7-3.85 3.89 0 5.53 2.12 5.53 5.75v6.42c0 4.73 0 5.09 2.92 5.09v1.15h-9.07v-1.17c3 0 3-.23 3-5.09v-5.18c0-2.34 0-5.31-3.58-5.31-3 0-4.83 2.48-5.71 3.81v6.68c0 4.78 0 5.09 2.92 5.09v1.15h-8.94v-1.15c2.92 0 2.92-.36 2.92-5.09v-4.9c0-1.94.35-5.57-3.59-5.57"/></svg>